<?xml version="1.0" encoding="UTF-8" standalone="no"?>
<svg xmlns="http://www.w3.org/2000/svg"
     xmlns:svg="http://www.w3.org/2000/svg"
     version="1.1"
     width="9.72222in" height="2.63889in"
     viewBox="0 0 700 190">
  <path id="Path"
        fill="orange" stroke="white" stroke-width="3"
        d="M 4.00,76.28
           C 4.00,76.28 4.00,48.00 4.00,48.00
             4.00,48.00 60.62,48.00 60.62,48.00
             84.21,48.00 96.00,59.75 96.00,83.25
             96.00,106.75 86.55,118.50 67.67,118.50
             67.67,118.50 96.00,147.00 96.00,147.00
             96.00,147.00 60.61,147.00 60.61,147.00
             60.61,147.00 32.33,118.50 32.33,118.50
             32.33,118.50 32.33,147.00 32.33,147.00
             32.33,147.00 4.00,147.00 4.00,147.00
             4.00,147.00 4.00,83.00 4.00,83.00
             4.00,83.00 32.33,83.00 32.33,83.00
             32.33,83.00 32.33,90.00 32.33,90.00
             32.33,90.00 60.61,90.00 60.61,90.00
             65.32,90.00 67.67,87.71 67.67,83.14
             67.67,78.57 65.31,76.28 60.59,76.28
             60.59,76.28 4.00,76.28 4.00,76.28 Z
           M 149.50,147.00
           C 135.82,147.00 124.15,142.17 114.48,132.52
             104.83,122.85 100.00,111.18 100.00,97.50
             100.00,83.84 104.83,72.17 114.48,62.50
             124.15,52.84 135.82,48.00 149.50,48.00
             163.18,48.00 174.84,52.84 184.50,62.50
             194.16,72.17 199.00,83.84 199.00,97.50
             199.00,111.18 194.16,122.85 184.50,132.52
             174.84,142.17 163.18,147.00 149.50,147.00 Z
           M 149.50,118.72
           C 155.33,118.72 160.32,116.65 164.45,112.50
             168.60,108.34 170.67,103.34 170.67,97.50
             170.67,91.66 168.60,86.66 164.45,82.52
             160.32,78.36 155.33,76.28 149.50,76.28
             143.66,76.28 138.68,78.36 134.53,82.52
             130.39,86.66 128.33,91.66 128.33,97.50
             128.33,103.34 130.39,108.34 134.53,112.50
             138.68,116.65 143.66,118.72 149.50,118.72 Z
           M 204.00,76.28
           C 204.00,76.28 204.00,48.00 204.00,48.00
             204.00,48.00 260.62,48.00 260.62,48.00
             284.21,48.00 296.00,59.75 296.00,83.25
             296.00,106.75 286.55,118.50 267.67,118.50
             267.67,118.50 296.00,147.00 296.00,147.00
             296.00,147.00 260.61,147.00 260.61,147.00
             260.61,147.00 232.33,118.50 232.33,118.50
             232.33,118.50 232.33,147.00 232.33,147.00
             232.33,147.00 204.00,147.00 204.00,147.00
             204.00,147.00 204.00,83.00 204.00,83.00
             204.00,83.00 232.33,83.00 232.33,83.00
             232.33,83.00 232.33,90.00 232.33,90.00
             232.33,90.00 260.61,90.00 260.61,90.00
             265.32,90.00 267.67,87.71 267.67,83.14
             267.67,78.57 265.31,76.28 260.59,76.28
             260.59,76.28 204.00,76.28 204.00,76.28 Z
           M 325.81,133.00
           C 325.81,133.00 320.86,147.00 320.86,147.00
             320.86,147.00 292.55,147.00 292.55,147.00
             292.55,147.00 327.94,48.00 327.94,48.00
             327.94,48.00 356.27,48.00 356.27,48.00
             356.27,48.00 391.66,147.00 391.66,147.00
             391.66,147.00 363.34,147.00 363.34,147.00
             363.34,147.00 358.31,133.00 358.31,133.00
             358.31,133.00 325.81,133.00 325.81,133.00 Z
           M 349.19,104.72
           C 349.19,104.72 342.09,83.45 342.09,83.45
             342.09,83.45 335.02,104.72 335.02,104.72
             335.02,104.72 349.19,104.72 349.19,104.72 Z
           M 421.33,48.00
           C 421.33,48.00 421.33,147.00 421.33,147.00
             421.33,147.00 393.00,147.00 393.00,147.00
             393.00,147.00 393.00,48.00 393.00,48.00
             393.00,48.00 421.33,48.00 421.33,48.00 Z
           M 434.00,112.00
           C 434.00,112.00 434.00,48.00 434.00,48.00
             434.00,48.00 462.33,48.00 462.33,48.00
             462.33,48.00 462.33,112.00 462.33,112.00
             462.33,112.00 434.00,112.00 434.00,112.00 Z
           M 511.89,118.72
           C 511.89,118.72 497.73,147.00 497.73,147.00
             497.73,147.00 434.00,147.00 434.00,147.00
             434.00,147.00 434.00,118.72 434.00,118.72
             434.00,118.72 511.89,118.72 511.89,118.72 Z
           M 513.00,76.28
           C 513.00,76.28 513.00,48.00 513.00,48.00
             513.00,48.00 597.97,48.00 597.97,48.00
             597.97,48.00 583.81,76.28 583.81,76.28
             583.81,76.28 513.00,76.28 513.00,76.28 Z
           M 597.97,83.00
           C 597.97,83.00 583.81,111.28 583.81,111.28
             583.81,111.28 541.33,111.28 541.33,111.28
             541.33,111.28 541.33,118.72 541.33,118.72
             541.33,118.72 597.97,118.72 597.97,118.72
             597.97,118.72 583.81,147.00 583.81,147.00
             583.81,147.00 513.00,147.00 513.00,147.00
             513.00,147.00 513.00,83.00 513.00,83.00
             513.00,83.00 597.97,83.00 597.97,83.00 Z
           M 602.00,76.28
           C 602.00,76.28 602.00,48.00 602.00,48.00
             602.00,48.00 658.62,48.00 658.62,48.00
             682.21,48.00 694.00,59.75 694.00,83.25
             694.00,106.75 684.55,118.50 665.67,118.50
             665.67,118.50 694.00,147.00 694.00,147.00
             694.00,147.00 658.61,147.00 658.61,147.00
             658.61,147.00 630.33,118.50 630.33,118.50
             630.33,118.50 630.33,147.00 630.33,147.00
             630.33,147.00 602.00,147.00 602.00,147.00
             602.00,147.00 602.00,83.00 602.00,83.00
             602.00,83.00 630.33,83.00 630.33,83.00
             630.33,83.00 630.33,90.00 630.33,90.00
             630.33,90.00 658.61,90.00 658.61,90.00
             663.32,90.00 665.67,87.71 665.67,83.14
             665.67,78.57 663.31,76.28 658.59,76.28
             658.59,76.28 602.00,76.28 602.00,76.28 Z" />
</svg>
